<?xml version="1.0" encoding="UTF-8" standalone="no"?>
<!DOCTYPE svg PUBLIC "-//W3C//DTD SVG 1.1//EN" "http://www.w3.org/Graphics/SVG/1.1/DTD/svg11.dtd">
<svg width="100%" height="100%" viewBox="0 0 60 60" version="1.1" xmlns="http://www.w3.org/2000/svg" xmlns:xlink="http://www.w3.org/1999/xlink" xml:space="preserve" xmlns:serif="http://www.serif.com/" style="fill-rule:evenodd;clip-rule:evenodd;stroke-linejoin:round;stroke-miterlimit:2;">
    <g transform="matrix(0.682957,0,0,0.682957,8.9755,5)">
        <g id="Grupo_366">
            <path id="Caminho_735" d="M0.324,0C0.824,0.237 1.324,0.467 1.812,0.714C2.768,1.193 3.722,1.674 4.67,2.168C5.57,2.636 6.449,3.139 7.354,3.594C7.895,3.866 8.48,4.049 9.024,4.319C9.833,4.719 10.616,5.17 11.424,5.584C12.38,6.077 13.343,6.557 14.307,7.034C15.225,7.435 16.122,7.884 16.994,8.377C17.444,8.724 17.815,9.165 18.08,9.668C18.58,10.468 19.033,11.312 19.468,12.157C19.943,13.082 20.383,14.026 20.826,14.967C21.126,15.614 21.446,16.259 21.699,16.926C21.961,17.618 22.146,18.338 22.378,19.041C22.648,19.859 22.943,20.668 23.209,21.488C23.35,21.922 23.468,22.365 23.566,22.811C23.695,23.395 23.783,23.988 23.91,24.573C24.073,25.325 24.257,26.073 24.432,26.822C24.44,26.861 24.458,26.898 24.464,26.936C24.593,27.902 24.746,28.865 24.844,29.836C24.972,31.101 25.054,32.371 25.163,33.636C25.201,33.801 25.253,33.961 25.319,34.117C25.589,33.07 25.819,32.171 26.052,31.276C26.214,30.668 26.397,30.066 26.559,29.457C26.704,28.915 26.845,28.371 26.965,27.822C27.076,27.312 27.172,26.799 27.247,26.282C27.374,25.396 27.468,24.505 27.596,23.619C27.765,22.445 28.006,21.279 28.12,20.101C28.239,18.886 28.227,17.658 28.303,16.439C28.352,15.639 28.455,14.848 28.545,13.939C29.218,14.248 29.845,14.522 30.457,14.82C31.425,15.291 32.388,15.771 33.347,16.261C34.51,16.856 35.659,17.481 36.828,18.061C37.728,18.506 38.642,18.908 39.552,19.327C40.334,19.568 40.934,20.204 41.127,21C41.414,21.848 41.765,22.673 42.178,23.467C42.462,24.19 42.673,24.942 42.909,25.683C43.192,26.572 43.495,27.456 43.738,28.356C43.919,29.026 44.014,29.717 44.152,30.398C44.323,31.25 44.497,32.101 44.672,32.952C44.687,33.009 44.699,33.067 44.706,33.125C44.791,34.589 44.897,36.052 44.943,37.518C44.916,38.004 44.854,38.488 44.757,38.965C44.753,39.101 44.796,39.235 44.88,39.343C47.529,34.843 49.82,30.224 50.266,24.777C50.65,24.905 51.027,25.056 51.392,25.231C52.66,25.942 53.935,26.645 55.166,27.417C56.856,28.473 58.346,29.82 59.566,31.395C60.189,32.212 60.68,33.121 61.021,34.09C61.473,35.294 61.648,36.583 61.534,37.864C61.463,38.617 61.166,39.347 61.034,40.097C60.823,41.057 60.393,41.956 59.778,42.723C59.007,43.817 58.04,44.758 56.926,45.5C56.226,45.949 55.57,46.458 54.852,46.867C53.807,47.461 52.721,47.985 51.657,48.549C51.382,48.694 51.137,48.895 50.857,49.035C50.657,49.103 50.449,49.15 50.239,49.173C51.71,46.371 52.592,43.297 52.831,40.141C52.401,40.774 51.975,41.41 51.542,42.041C50.921,42.941 50.342,43.886 49.659,44.741C48.604,46.065 47.425,47.292 46.391,48.632C44.801,50.474 43.072,52.19 41.219,53.766C40.412,54.41 39.513,54.927 38.551,55.301C37.662,55.746 36.763,56.17 35.875,56.617C34.744,57.187 33.622,57.774 32.492,58.345C31.243,58.978 29.99,59.604 28.735,60.224C28.688,60.247 28.621,60.224 28.453,60.224C28.505,60.005 28.572,59.79 28.653,59.58C29,58.835 29.368,58.101 29.721,57.36C30.121,56.53 30.53,55.707 30.887,54.86C31.244,54.013 31.538,53.16 31.855,52.304C32.146,51.523 32.446,50.744 32.712,49.953C32.876,49.462 32.98,48.953 33.121,48.453C33.29,47.847 33.483,47.247 33.64,46.638C33.76,46.174 33.846,45.7 33.94,45.229C34.072,44.543 34.195,43.856 34.319,43.168C34.404,42.692 34.502,42.215 34.563,41.735C34.611,41.348 34.612,40.954 34.633,40.563L34.46,40.543C34.216,41.126 33.973,41.71 33.727,42.293C33.481,42.876 33.234,43.474 32.977,44.06C32.72,44.646 32.455,45.26 32.17,45.85C31.74,46.734 31.303,47.615 30.842,48.484C30.397,49.325 29.934,50.159 29.45,50.984C28.886,51.937 28.288,52.87 27.707,53.813C27.252,54.552 26.82,55.306 26.339,56.028C25.978,56.571 25.559,57.076 25.16,57.593C24.56,58.375 23.984,59.185 23.334,59.926C21.975,61.472 20.576,62.983 19.189,64.506C18.38,65.234 17.417,65.77 16.372,66.075C15.786,66.32 15.234,66.645 14.653,66.906C14.1,67.154 13.527,67.36 12.967,67.596C12.374,67.846 11.786,68.106 11.198,68.368C10.634,68.619 10.072,68.873 9.513,69.13C8.883,69.419 8.262,69.724 7.627,69.999C7.069,70.24 6.496,70.444 5.934,70.675C5.346,70.916 4.762,71.168 4.178,71.418C3.558,71.683 2.936,71.943 2.322,72.218C1.767,72.469 1.222,72.747 0.671,73.001C0.452,73.083 0.228,73.153 0.001,73.211C0.592,72.411 1.077,71.756 1.551,71.099C2.161,70.252 2.795,69.419 3.363,68.545C4.103,67.409 4.837,66.263 5.484,65.073C6.178,63.793 6.784,62.464 7.402,61.145C8,59.874 8.6,58.6 9.152,57.3C9.432,56.638 9.587,55.924 9.82,55.242C10.087,54.464 10.39,53.698 10.653,52.919C10.8,52.486 10.914,52.041 11.017,51.596C11.148,51.032 11.243,50.461 11.369,49.896C11.469,49.464 11.603,49.041 11.696,48.609C11.975,47.309 12.241,45.999 12.512,44.694C12.524,44.636 12.524,44.576 12.532,44.518C12.875,41.811 13.003,39.081 12.915,36.354C12.915,35.525 12.924,34.695 12.877,33.869C12.777,32.148 12.683,30.426 12.507,28.712C12.374,27.42 12.134,26.136 11.907,24.854C11.737,23.887 11.553,22.92 11.307,21.97C10.94,20.546 10.54,19.131 10.107,17.726C9.878,16.99 9.529,16.292 9.264,15.566C9.023,14.908 8.838,14.229 8.596,13.566C8.396,13.034 8.171,12.513 7.932,11.999C7.663,11.42 7.372,10.849 7.079,10.28C6.63,9.408 6.197,8.527 5.712,7.68C5.159,6.7 4.586,5.738 3.964,4.808C3.464,4.067 2.903,3.369 2.339,2.677C1.75,1.954 1.123,1.261 0.517,0.55C0.414,0.415 0.318,0.274 0.231,0.128L0.324,0" style="fill:rgb(255,38,92);fill-rule:nonzero;"/>
        </g>
    </g>
</svg>
